<svg width="407" height="424" viewBox="0 0 407 424" fill="none" xmlns="http://www.w3.org/2000/svg">
<g clip-path="url(#clip0)">
<g opacity="0.7">
<path opacity="0.7" d="M337.411 203.232L203.151 170.892V424L337.411 388.849V203.232Z" fill="url(#paint0_linear)"/>
<g opacity="0.1">
<path opacity="0.1" d="M337.411 203.232L203.151 170.892V424L337.411 388.849V203.232Z" fill="url(#paint1_linear)"/>
</g>
<path opacity="0.7" d="M68.885 203.232L203.151 170.892V424L68.885 389.548V203.232Z" fill="url(#paint2_linear)"/>
<g opacity="0.17">
<path opacity="0.17" d="M68.885 203.232L203.151 170.892V424L68.885 389.548V203.232Z" fill="url(#paint3_linear)"/>
</g>
<path opacity="0.7" d="M203.151 170.892L272.74 113.24L407 147.693L337.411 203.232L203.151 170.892Z" fill="url(#paint4_linear)"/>
<path opacity="0.7" d="M0 148.392L68.885 203.232L203.151 170.892L134.964 113.24L0 148.392Z" fill="url(#paint5_linear)"/>
<g opacity="0.05">
<path opacity="0.05" d="M0 148.392L68.885 203.232L203.151 170.892L134.964 113.24L0 148.392Z" fill="url(#paint6_linear)"/>
</g>
<g opacity="0.5">
<path opacity="0.5" d="M200.727 141.637H106.064C104.686 141.637 103.569 142.754 103.569 144.132V231.106C103.569 232.485 104.686 233.602 106.064 233.602H200.727C202.106 233.602 203.223 232.485 203.223 231.106V144.132C203.223 142.754 202.106 141.637 200.727 141.637Z" fill="url(#paint7_linear)"/>
</g>
<path opacity="0.7" d="M199.646 142.346H107.278C105.9 142.346 104.783 143.464 104.783 144.842V229.587C104.783 230.965 105.9 232.082 107.278 232.082H199.646C201.024 232.082 202.141 230.965 202.141 229.587V144.842C202.141 143.464 201.024 142.346 199.646 142.346Z" fill="url(#paint8_linear)"/>
<path opacity="0.7" d="M126.209 157.127H114.781C113.403 157.127 112.285 158.244 112.285 159.623V169.411C112.285 170.79 113.403 171.907 114.781 171.907H126.209C127.587 171.907 128.704 170.79 128.704 169.411V159.623C128.704 158.244 127.587 157.127 126.209 157.127Z" fill="url(#paint9_linear)"/>
<path opacity="0.7" d="M198.454 157.127H134.072C133.827 157.127 133.628 157.325 133.628 157.57V158.325C133.628 158.57 133.827 158.768 134.072 158.768H198.454C198.699 158.768 198.898 158.57 198.898 158.325V157.57C198.898 157.325 198.699 157.127 198.454 157.127Z" fill="url(#paint10_linear)"/>
<path opacity="0.7" d="M198.454 162.052H134.072C133.827 162.052 133.628 162.25 133.628 162.495V163.25C133.628 163.495 133.827 163.693 134.072 163.693H198.454C198.699 163.693 198.898 163.495 198.898 163.25V162.495C198.898 162.25 198.699 162.052 198.454 162.052Z" fill="url(#paint11_linear)"/>
<path opacity="0.7" d="M198.454 179.938H111.088C110.843 179.938 110.644 180.137 110.644 180.382V181.136C110.644 181.381 110.843 181.58 111.088 181.58H198.454C198.699 181.58 198.898 181.381 198.898 181.136V180.382C198.898 180.137 198.699 179.938 198.454 179.938Z" fill="url(#paint12_linear)"/>
<path opacity="0.7" d="M198.454 184.863H111.088C110.843 184.863 110.644 185.062 110.644 185.307V186.061C110.644 186.306 110.843 186.505 111.088 186.505H198.454C198.699 186.505 198.898 186.306 198.898 186.061V185.307C198.898 185.062 198.699 184.863 198.454 184.863Z" fill="url(#paint13_linear)"/>
<path opacity="0.7" d="M198.454 191.429H111.088C110.843 191.429 110.644 191.628 110.644 191.873V192.627C110.644 192.872 110.843 193.071 111.088 193.071H198.454C198.699 193.071 198.898 192.872 198.898 192.627V191.873C198.898 191.628 198.699 191.429 198.454 191.429Z" fill="url(#paint14_linear)"/>
<path opacity="0.7" d="M161.098 196.36H111.088C110.843 196.36 110.644 196.559 110.644 196.804V197.558C110.644 197.803 110.843 198.002 111.088 198.002H161.098C161.343 198.002 161.541 197.803 161.541 197.558V196.804C161.541 196.559 161.343 196.36 161.098 196.36Z" fill="url(#paint15_linear)"/>
<path opacity="0.7" d="M198.454 202.91H111.088C110.843 202.91 110.644 203.109 110.644 203.354V204.108C110.644 204.353 110.843 204.552 111.088 204.552H198.454C198.699 204.552 198.898 204.353 198.898 204.108V203.354C198.898 203.109 198.699 202.91 198.454 202.91Z" fill="url(#paint16_linear)"/>
<path opacity="0.7" d="M198.454 207.835H111.088C110.843 207.835 110.644 208.034 110.644 208.279V209.033C110.644 209.278 110.843 209.477 111.088 209.477H198.454C198.699 209.477 198.898 209.278 198.898 209.033V208.279C198.898 208.034 198.699 207.835 198.454 207.835Z" fill="url(#paint17_linear)"/>
<path opacity="0.7" d="M198.454 214.407H111.088C110.843 214.407 110.644 214.606 110.644 214.851V215.605C110.644 215.85 110.843 216.049 111.088 216.049H198.454C198.699 216.049 198.898 215.85 198.898 215.605V214.851C198.898 214.606 198.699 214.407 198.454 214.407Z" fill="url(#paint18_linear)"/>
<path opacity="0.7" d="M161.098 219.332H111.088C110.843 219.332 110.644 219.531 110.644 219.776V220.53C110.644 220.775 110.843 220.974 111.088 220.974H161.098C161.343 220.974 161.541 220.775 161.541 220.53V219.776C161.541 219.531 161.343 219.332 161.098 219.332Z" fill="url(#paint19_linear)"/>
<g opacity="0.5">
<path opacity="0.5" d="M215.765 162.884H121.102C119.724 162.884 118.607 164.001 118.607 165.379V252.353C118.607 253.732 119.724 254.849 121.102 254.849H215.765C217.144 254.849 218.261 253.732 218.261 252.353V165.379C218.261 164.001 217.144 162.884 215.765 162.884Z" fill="url(#paint20_linear)"/>
</g>
<path opacity="0.7" d="M214.684 163.599H122.316C120.938 163.599 119.821 164.717 119.821 166.095V250.839C119.821 252.218 120.938 253.335 122.316 253.335H214.684C216.062 253.335 217.179 252.218 217.179 250.839V166.095C217.179 164.717 216.062 163.599 214.684 163.599Z" fill="url(#paint21_linear)"/>
<path opacity="0.7" d="M141.247 178.38H129.819C128.441 178.38 127.323 179.497 127.323 180.875V190.664C127.323 192.042 128.441 193.16 129.819 193.16H141.247C142.625 193.16 143.742 192.042 143.742 190.664V180.875C143.742 179.497 142.625 178.38 141.247 178.38Z" fill="url(#paint22_linear)"/>
<path opacity="0.7" d="M213.498 178.38H149.115C148.87 178.38 148.671 178.578 148.671 178.823V179.577C148.671 179.822 148.87 180.021 149.115 180.021H213.498C213.743 180.021 213.941 179.822 213.941 179.577V178.823C213.941 178.578 213.743 178.38 213.498 178.38Z" fill="url(#paint23_linear)"/>
<path opacity="0.7" d="M213.498 183.304H149.115C148.87 183.304 148.671 183.503 148.671 183.748V184.502C148.671 184.747 148.87 184.946 149.115 184.946H213.498C213.743 184.946 213.941 184.747 213.941 184.502V183.748C213.941 183.503 213.743 183.304 213.498 183.304Z" fill="url(#paint24_linear)"/>
<path opacity="0.7" d="M213.492 201.185H126.126C125.881 201.185 125.682 201.384 125.682 201.629V202.383C125.682 202.628 125.881 202.827 126.126 202.827H213.492C213.737 202.827 213.936 202.628 213.936 202.383V201.629C213.936 201.384 213.737 201.185 213.492 201.185Z" fill="url(#paint25_linear)"/>
<path opacity="0.7" d="M213.492 206.116H126.126C125.881 206.116 125.682 206.314 125.682 206.559V207.314C125.682 207.559 125.881 207.757 126.126 207.757H213.492C213.737 207.757 213.936 207.559 213.936 207.314V206.559C213.936 206.314 213.737 206.116 213.492 206.116Z" fill="url(#paint26_linear)"/>
<path opacity="0.7" d="M213.492 212.682H126.126C125.881 212.682 125.682 212.881 125.682 213.126V213.88C125.682 214.125 125.881 214.324 126.126 214.324H213.492C213.737 214.324 213.936 214.125 213.936 213.88V213.126C213.936 212.881 213.737 212.682 213.492 212.682Z" fill="url(#paint27_linear)"/>
<path opacity="0.7" d="M176.136 217.607H126.126C125.881 217.607 125.682 217.806 125.682 218.051V218.805C125.682 219.05 125.881 219.249 126.126 219.249H176.136C176.381 219.249 176.579 219.05 176.579 218.805V218.051C176.579 217.806 176.381 217.607 176.136 217.607Z" fill="url(#paint28_linear)"/>
<path opacity="0.7" d="M213.492 224.163H126.126C125.881 224.163 125.682 224.361 125.682 224.606V225.361C125.682 225.606 125.881 225.804 126.126 225.804H213.492C213.737 225.804 213.936 225.606 213.936 225.361V224.606C213.936 224.361 213.737 224.163 213.492 224.163Z" fill="url(#paint29_linear)"/>
<path opacity="0.7" d="M213.492 229.088H126.126C125.881 229.088 125.682 229.286 125.682 229.531V230.286C125.682 230.531 125.881 230.729 126.126 230.729H213.492C213.737 230.729 213.936 230.531 213.936 230.286V229.531C213.936 229.286 213.737 229.088 213.492 229.088Z" fill="url(#paint30_linear)"/>
<path opacity="0.7" d="M213.492 235.66H126.126C125.881 235.66 125.682 235.858 125.682 236.103V236.858C125.682 237.103 125.881 237.301 126.126 237.301H213.492C213.737 237.301 213.936 237.103 213.936 236.858V236.103C213.936 235.858 213.737 235.66 213.492 235.66Z" fill="url(#paint31_linear)"/>
<path opacity="0.7" d="M176.136 240.585H126.126C125.881 240.585 125.682 240.783 125.682 241.028V241.783C125.682 242.028 125.881 242.226 126.126 242.226H176.136C176.381 242.226 176.579 242.028 176.579 241.783V241.028C176.579 240.783 176.381 240.585 176.136 240.585Z" fill="url(#paint32_linear)"/>
<g opacity="0.5">
<path opacity="0.5" d="M262.903 174.786H176.557V276.257H262.903V174.786Z" fill="url(#paint33_linear)"/>
</g>
<path opacity="0.7" d="M261.068 176.422H179.213V274.017H261.068V176.422Z" fill="url(#paint34_linear)"/>
<g opacity="0.5">
<path opacity="0.5" d="M224.599 191.94V189.488H215.699V191.94H209.439V203.98H230.842V191.94H224.599ZM216.808 190.37H223.462V191.929H216.808V190.37Z" fill="url(#paint35_linear)"/>
</g>
<path opacity="0.7" d="M229.938 192.345H210.342V203.37H229.938V192.345Z" fill="url(#paint36_linear)"/>
<path opacity="0.7" d="M216.059 190.098V192.96H217.08V190.919H223.201V192.96H224.222V190.098H216.059Z" fill="url(#paint37_linear)"/>
<path opacity="0.7" d="M249.024 219.238H191.462V221.689H249.024V219.238Z" fill="url(#paint38_linear)"/>
<path opacity="0.7" d="M249.024 235.366H191.462V237.817H249.024V235.366Z" fill="url(#paint39_linear)"/>
<path opacity="0.7" d="M249.024 239.653H191.462V242.104H249.024V239.653Z" fill="url(#paint40_linear)"/>
<path opacity="0.7" d="M215.754 231.079H191.462V233.53H215.754V231.079Z" fill="url(#paint41_linear)"/>
<g opacity="0.6">
<path opacity="0.6" d="M249.024 231.079H230.859V233.53H249.024V231.079Z" fill="url(#paint42_linear)"/>
</g>
<path opacity="0.7" d="M229.833 249.658H211.668V252.109H229.833V249.658Z" fill="url(#paint43_linear)"/>
<path opacity="0.7" d="M68.885 203.232V389.548L203.151 424V239.093L68.885 203.232Z" fill="url(#paint44_linear)"/>
<path opacity="0.7" d="M337.411 388.849L203.151 424V239.093L337.411 203.232V388.849Z" fill="url(#paint45_linear)"/>
<g opacity="0.07">
<path opacity="0.07" d="M337.411 388.849L203.151 424V239.093L337.411 203.232V388.849Z" fill="url(#paint46_linear)"/>
</g>
<g opacity="0.07">
<path opacity="0.07" d="M283.985 326.976V388.144L337.411 373.381V312.213L283.985 326.976Z" fill="url(#paint47_linear)"/>
</g>
<path opacity="0.7" d="M306.742 187.691H267.145V225.743H306.742V187.691Z" fill="url(#paint48_linear)"/>
<path opacity="0.7" d="M306.121 188.623H267.766V224.967H306.121V188.623Z" fill="url(#paint49_linear)"/>
<g opacity="0.5">
<path opacity="0.5" d="M290.334 194.996V193.143H283.553V195.007H278.801V204.169H295.086V194.996H290.334ZM284.401 193.809H289.491V194.996H284.401V193.809Z" fill="url(#paint50_linear)"/>
</g>
<g opacity="0.6">
<path opacity="0.6" d="M294.393 195.306H279.488V203.692H294.393V195.306Z" fill="url(#paint51_linear)"/>
</g>
<g opacity="0.6">
<path opacity="0.6" d="M283.835 193.592V195.772H284.617V194.219H289.275V195.772H290.051V193.592H283.835Z" fill="url(#paint52_linear)"/>
</g>
<g opacity="0.6">
<path opacity="0.6" d="M294.16 210.214H280.342V212.078H294.16V210.214Z" fill="url(#paint53_linear)"/>
</g>
<path opacity="0.7" d="M298.746 213.631H275.141V215.494H298.746V213.631Z" fill="url(#paint54_linear)"/>
<g opacity="0.5">
<path opacity="0.5" d="M224.576 71.3729H173.274V113.523H224.576V71.3729Z" fill="url(#paint55_linear)"/>
</g>
<path opacity="0.7" d="M223.883 72.1715H173.873V112.824H223.883V72.1715Z" fill="url(#paint56_linear)"/>
<path opacity="0.7" d="M223.883 72.1715H173.873V81.2394H223.883V72.1715Z" fill="url(#paint57_linear)"/>
<g opacity="0.1">
<path opacity="0.1" d="M223.883 72.1715H173.873V81.2394H223.883V72.1715Z" fill="url(#paint58_linear)"/>
</g>
<path opacity="0.7" d="M219.902 84.5282H177.86V89.8081H219.902V84.5282Z" fill="url(#paint59_linear)"/>
<path opacity="0.7" d="M208.546 93.7958H177.86V95.5872H208.546V93.7958Z" fill="url(#paint60_linear)"/>
<path opacity="0.7" d="M197.783 96.885H177.86V98.6764H197.783V96.885Z" fill="url(#paint61_linear)"/>
<path opacity="0.7" d="M204.16 99.9742H177.86V101.766H204.16V99.9742Z" fill="url(#paint62_linear)"/>
<path opacity="0.7" d="M208.546 103.058H177.86V104.849H208.546V103.058Z" fill="url(#paint63_linear)"/>
<path opacity="0.7" d="M188.118 106.147H177.86V107.938H188.118V106.147Z" fill="url(#paint64_linear)"/>
<g opacity="0.5">
<path opacity="0.5" d="M312.292 103.025H248.703V155.263H312.292V103.025Z" fill="url(#paint65_linear)"/>
</g>
<path opacity="0.7" d="M311.433 104.012H249.446V154.398H311.433V104.012Z" fill="url(#paint66_linear)"/>
<path opacity="0.7" d="M311.433 104.012H249.446V115.248H311.433V104.012Z" fill="url(#paint67_linear)"/>
<path opacity="0.7" d="M306.487 119.325H254.381V125.869H306.487V119.325Z" fill="url(#paint68_linear)"/>
<path opacity="0.7" d="M292.413 130.811H254.381V133.035H292.413V130.811Z" fill="url(#paint69_linear)"/>
<path opacity="0.7" d="M279.078 134.637H254.381V136.861H279.078V134.637Z" fill="url(#paint70_linear)"/>
<path opacity="0.7" d="M286.979 138.47H254.381V140.694H286.979V138.47Z" fill="url(#paint71_linear)"/>
<path opacity="0.7" d="M292.413 142.297H254.381V144.52H292.413V142.297Z" fill="url(#paint72_linear)"/>
<path opacity="0.7" d="M267.101 146.123H254.381V148.347H267.101V146.123Z" fill="url(#paint73_linear)"/>
<path opacity="0.7" d="M271.914 121.549H257.098V123.523H271.914V121.549Z" fill="url(#paint74_linear)"/>
<g opacity="0.1">
<path opacity="0.1" d="M67.1329 299.906L142.345 318.89L202.796 269.674V239.442L68.5357 205.694L67.1329 299.906Z" fill="url(#paint75_linear)"/>
</g>
<g opacity="0.1">
<path opacity="0.1" d="M338.464 299.906L263.247 318.89L202.796 269.674V239.442L337.056 205.694L338.464 299.906Z" fill="url(#paint76_linear)"/>
</g>
<path opacity="0.7" d="M68.885 203.232L0 260.185L134.26 293.933L203.151 239.093L68.885 203.232Z" fill="url(#paint77_linear)"/>
<path opacity="0.7" d="M337.411 203.232L407 260.185L273.444 293.933L203.151 239.093L337.411 203.232Z" fill="url(#paint78_linear)"/>
<g opacity="0.07">
<path opacity="0.07" d="M337.411 203.232L407 260.185L273.444 293.933L203.151 239.093L337.411 203.232Z" fill="url(#paint79_linear)"/>
</g>
</g>
<path d="M337.655 201.523L204.542 169.456V420.401L337.655 385.549V201.523Z" fill="#535461"/>
<path opacity="0.1" d="M337.655 201.523L204.542 169.456V420.401L337.655 385.549V201.523Z" fill="black"/>
<path d="M71.4357 201.523L204.542 169.456V420.401L71.4357 386.242V201.523Z" fill="#535461"/>
<path opacity="0.17" d="M71.4357 200.414L204.542 168.347V420.401L71.4357 386.242V200.414Z" fill="black"/>
<path d="M203.433 170.565L273.538 112.298L406.651 146.456L336.546 202.633L203.433 170.565Z" fill="#535461"/>
<path d="M4.24744 148.259L72.5447 202.633L205.651 170.565L138.053 113.407L4.24744 148.259Z" fill="#535461"/>
<path opacity="0.05" d="M3.13843 147.149L73.0992 202.633L206.206 170.565L136.944 112.298L3.13843 147.149Z" fill="black"/>
<g opacity="0.5">
<path opacity="0.5" d="M202.119 140.45H108.31C106.932 140.45 105.814 141.567 105.814 142.945V229.132C105.814 230.51 106.932 231.628 108.31 231.628H202.119C203.497 231.628 204.615 230.51 204.615 229.132V142.945C204.615 141.567 203.497 140.45 202.119 140.45Z" fill="url(#paint80_linear)"/>
</g>
<path d="M201.049 141.16H109.518C108.14 141.16 107.023 142.277 107.023 143.655V227.629C107.023 229.007 108.14 230.125 109.518 230.125H201.049C202.427 230.125 203.544 229.007 203.544 227.629V143.655C203.544 142.277 202.427 141.16 201.049 141.16Z" fill="#F5F5F5"/>
<path d="M128.244 155.812H116.954C115.576 155.812 114.459 156.93 114.459 158.308V167.969C114.459 169.348 115.576 170.465 116.954 170.465H128.244C129.622 170.465 130.739 169.348 130.739 167.969V158.308C130.739 156.93 129.622 155.812 128.244 155.812Z" fill="#6C63FF"/>
<path d="M199.89 155.812H136.068C135.823 155.812 135.624 156.011 135.624 156.256V156.999C135.624 157.244 135.823 157.443 136.068 157.443H199.89C200.135 157.443 200.334 157.244 200.334 156.999V156.256C200.334 156.011 200.135 155.812 199.89 155.812Z" fill="#E0E0E0"/>
<path d="M199.89 160.693H136.068C135.823 160.693 135.624 160.892 135.624 161.137V161.88C135.624 162.125 135.823 162.324 136.068 162.324H199.89C200.135 162.324 200.334 162.125 200.334 161.88V161.137C200.334 160.892 200.135 160.693 199.89 160.693Z" fill="#E0E0E0"/>
<path d="M199.89 178.424H113.278C113.033 178.424 112.834 178.623 112.834 178.868V179.611C112.834 179.856 113.033 180.054 113.278 180.054H199.89C200.135 180.054 200.334 179.856 200.334 179.611V178.868C200.334 178.623 200.135 178.424 199.89 178.424Z" fill="#E0E0E0"/>
<path d="M199.89 183.31H113.278C113.033 183.31 112.834 183.509 112.834 183.754V184.497C112.834 184.742 113.033 184.941 113.278 184.941H199.89C200.135 184.941 200.334 184.742 200.334 184.497V183.754C200.334 183.509 200.135 183.31 199.89 183.31Z" fill="#E0E0E0"/>
<path d="M199.89 189.821H113.278C113.033 189.821 112.834 190.02 112.834 190.265V191.008C112.834 191.253 113.033 191.452 113.278 191.452H199.89C200.135 191.452 200.334 191.253 200.334 191.008V190.265C200.334 190.02 200.135 189.821 199.89 189.821Z" fill="#E0E0E0"/>
<path d="M162.855 194.707H113.278C113.033 194.707 112.834 194.906 112.834 195.151V195.894C112.834 196.139 113.033 196.338 113.278 196.338H162.855C163.1 196.338 163.299 196.139 163.299 195.894V195.151C163.299 194.906 163.1 194.707 162.855 194.707Z" fill="#E0E0E0"/>
<path d="M199.89 201.202H113.278C113.033 201.202 112.834 201.4 112.834 201.645V202.389C112.834 202.634 113.033 202.832 113.278 202.832H199.89C200.135 202.832 200.334 202.634 200.334 202.389V201.645C200.334 201.4 200.135 201.202 199.89 201.202Z" fill="#E0E0E0"/>
<path d="M199.89 206.088H113.278C113.033 206.088 112.834 206.287 112.834 206.532V207.275C112.834 207.52 113.033 207.718 113.278 207.718H199.89C200.135 207.718 200.334 207.52 200.334 207.275V206.532C200.334 206.287 200.135 206.088 199.89 206.088Z" fill="#E0E0E0"/>
<path d="M199.89 212.599H113.278C113.033 212.599 112.834 212.798 112.834 213.043V213.786C112.834 214.031 113.033 214.23 113.278 214.23H199.89C200.135 214.23 200.334 214.031 200.334 213.786V213.043C200.334 212.798 200.135 212.599 199.89 212.599Z" fill="#E0E0E0"/>
<path d="M162.855 217.485H113.278C113.033 217.485 112.834 217.684 112.834 217.929V218.672C112.834 218.917 113.033 219.116 113.278 219.116H162.855C163.1 219.116 163.299 218.917 163.299 218.672V217.929C163.299 217.684 163.1 217.485 162.855 217.485Z" fill="#E0E0E0"/>
<g opacity="0.5">
<path opacity="0.5" d="M217.03 161.519H123.22C121.842 161.519 120.725 162.637 120.725 164.015V250.202C120.725 251.58 121.842 252.697 123.22 252.697H217.03C218.408 252.697 219.525 251.58 219.525 250.202V164.015C219.525 162.637 218.408 161.519 217.03 161.519Z" fill="url(#paint81_linear)"/>
</g>
<path d="M215.96 162.229H124.429C123.051 162.229 121.934 163.347 121.934 164.725V248.699C121.934 250.077 123.051 251.194 124.429 251.194H215.96C217.338 251.194 218.455 250.077 218.455 248.699V164.725C218.455 163.347 217.338 162.229 215.96 162.229Z" fill="white"/>
<path d="M143.154 176.882H131.865C130.487 176.882 129.369 177.999 129.369 179.378V189.039C129.369 190.417 130.487 191.535 131.865 191.535H143.154C144.532 191.535 145.649 190.417 145.649 189.039V179.378C145.649 177.999 144.532 176.882 143.154 176.882Z" fill="#6C63FF"/>
<path d="M214.801 176.882H150.978C150.733 176.882 150.535 177.081 150.535 177.326V178.069C150.535 178.314 150.733 178.513 150.978 178.513H214.801C215.046 178.513 215.244 178.314 215.244 178.069V177.326C215.244 177.081 215.046 176.882 214.801 176.882Z" fill="#E0E0E0"/>
<path d="M214.801 181.763H150.978C150.733 181.763 150.535 181.961 150.535 182.206V182.949C150.535 183.195 150.733 183.393 150.978 183.393H214.801C215.046 183.393 215.244 183.195 215.244 182.949V182.206C215.244 181.961 215.046 181.763 214.801 181.763Z" fill="#E0E0E0"/>
<path d="M214.801 199.494H128.188C127.943 199.494 127.745 199.692 127.745 199.937V200.68C127.745 200.925 127.943 201.124 128.188 201.124H214.801C215.046 201.124 215.244 200.925 215.244 200.68V199.937C215.244 199.692 215.046 199.494 214.801 199.494Z" fill="#E0E0E0"/>
<path d="M214.801 204.38H128.188C127.943 204.38 127.745 204.578 127.745 204.823V205.567C127.745 205.812 127.943 206.01 128.188 206.01H214.801C215.046 206.01 215.244 205.812 215.244 205.567V204.823C215.244 204.578 215.046 204.38 214.801 204.38Z" fill="#E0E0E0"/>
<path d="M214.801 210.891H128.188C127.943 210.891 127.745 211.089 127.745 211.334V212.078C127.745 212.323 127.943 212.521 128.188 212.521H214.801C215.046 212.521 215.244 212.323 215.244 212.078V211.334C215.244 211.089 215.046 210.891 214.801 210.891Z" fill="#E0E0E0"/>
<path d="M177.766 215.777H128.188C127.943 215.777 127.745 215.976 127.745 216.221V216.964C127.745 217.209 127.943 217.407 128.188 217.407H177.766C178.011 217.407 178.209 217.209 178.209 216.964V216.221C178.209 215.976 178.011 215.777 177.766 215.777Z" fill="#E0E0E0"/>
<path d="M214.801 222.271H128.188C127.943 222.271 127.745 222.47 127.745 222.715V223.458C127.745 223.703 127.943 223.902 128.188 223.902H214.801C215.046 223.902 215.244 223.703 215.244 223.458V222.715C215.244 222.47 215.046 222.271 214.801 222.271Z" fill="#E0E0E0"/>
<path d="M214.801 227.158H128.188C127.943 227.158 127.745 227.356 127.745 227.601V228.344C127.745 228.589 127.943 228.788 128.188 228.788H214.801C215.046 228.788 215.244 228.589 215.244 228.344V227.601C215.244 227.356 215.046 227.158 214.801 227.158Z" fill="#E0E0E0"/>
<path d="M214.801 233.669H128.188C127.943 233.669 127.745 233.867 127.745 234.112V234.856C127.745 235.101 127.943 235.299 128.188 235.299H214.801C215.046 235.299 215.244 235.101 215.244 234.856V234.112C215.244 233.867 215.046 233.669 214.801 233.669Z" fill="#E0E0E0"/>
<path d="M177.766 238.555H128.188C127.943 238.555 127.745 238.753 127.745 238.998V239.742C127.745 239.987 127.943 240.185 128.188 240.185H177.766C178.011 240.185 178.209 239.987 178.209 239.742V238.998C178.209 238.753 178.011 238.555 177.766 238.555Z" fill="#E0E0E0"/>
<g opacity="0.5">
<path opacity="0.5" d="M263.79 173.321H178.182V273.922H263.79V173.321Z" fill="url(#paint82_linear)"/>
</g>
<path d="M261.972 174.941H180.816V271.698H261.972V174.941Z" fill="white"/>
<g opacity="0.5">
<path opacity="0.5" d="M225.813 190.326V187.891H216.969V190.326H210.781V202.267H232.001V190.326H225.813ZM218.05 188.778H224.704V190.326H218.05V188.778Z" fill="url(#paint83_linear)"/>
</g>
<path d="M231.108 190.731H211.679V201.662H231.108V190.731Z" fill="#6C63FF"/>
<path d="M217.346 188.501V191.335H218.355V189.311H224.427V191.335H225.441V188.501H217.346Z" fill="#6C63FF"/>
<path d="M250.028 217.391H192.959V219.82H250.028V217.391Z" fill="#E0E0E0"/>
<path d="M250.028 233.38H192.959V235.809H250.028V233.38Z" fill="#E0E0E0"/>
<path d="M250.028 237.634H192.959V240.063H250.028V237.634Z" fill="#E0E0E0"/>
<path d="M217.041 229.132H192.959V231.561H217.041V229.132Z" fill="#E0E0E0"/>
<path opacity="0.6" d="M250.028 229.132H232.018V231.561H250.028V229.132Z" fill="#3AD29F"/>
<path d="M231.003 247.551H212.993V249.98H231.003V247.551Z" fill="#6C63FF"/>
<path d="M71.4357 201.523V386.242L204.542 420.401L206.339 237.074L71.4357 201.523Z" fill="#535461"/>
<path d="M337.655 385.549L204.542 420.401V237.074L337.655 201.523V385.549Z" fill="#535461"/>
<path opacity="0.07" d="M337.655 385.549L204.542 420.401V237.074L337.655 201.523V385.549Z" fill="black"/>
<path opacity="0.07" d="M284.689 324.209V384.85L337.655 370.214V309.567L284.689 324.209Z" fill="black"/>
<path d="M307.252 186.116H267.993V223.841H307.252V186.116Z" fill="url(#paint84_linear)"/>
<path d="M306.636 187.037H268.609V223.07H306.636V187.037Z" fill="#F5F5F5"/>
<g opacity="0.5">
<path opacity="0.5" d="M290.988 193.354V191.479H284.262V193.332H279.555V202.416H295.696V193.354H290.988ZM285.105 192.178H290.151V193.354H285.105V192.178Z" fill="url(#paint85_linear)"/>
</g>
<path opacity="0.6" d="M295.008 193.659H280.231V201.973H295.008V193.659Z" fill="#6C63FF"/>
<path opacity="0.6" d="M284.545 191.967V194.125H285.316V192.583H289.935V194.125H290.7V191.967H284.545Z" fill="#6C63FF"/>
<g opacity="0.6">
<path opacity="0.6" d="M294.781 208.445H281.079V210.292H294.781V208.445Z" fill="#6C63FF"/>
</g>
<path d="M299.322 211.834H275.923V213.68H299.322V211.834Z" fill="#BDBDBD"/>
<path d="M269.618 0H230.36V37.7246H269.618V0Z" fill="url(#paint86_linear)"/>
<path d="M269.003 0.926193H230.975V36.9593H269.003V0.926193Z" fill="#F5F5F5"/>
<g opacity="0.5">
<path opacity="0.5" d="M253.355 7.23768V5.39082H246.629V7.23768H241.921V16.3222H258.062V7.23768H253.355ZM247.472 6.0619H252.517V7.23768H247.472V6.0619Z" fill="url(#paint87_linear)"/>
</g>
<path opacity="0.6" d="M257.375 7.54271H242.598V15.8563H257.375V7.54271Z" fill="#6C63FF"/>
<path opacity="0.6" d="M246.911 5.85115V8.00859H247.682V6.46677H252.301V8.00859H253.066V5.85115H246.911Z" fill="#6C63FF"/>
<g opacity="0.6">
<path opacity="0.6" d="M257.147 22.3286H243.446V24.1755H257.147V22.3286Z" fill="#6C63FF"/>
</g>
<path d="M261.689 25.7173H238.289V27.5642H261.689V25.7173Z" fill="#BDBDBD"/>
<g opacity="0.5">
<path opacity="0.5" d="M225.791 70.7905H174.927V112.58H225.791V70.7905Z" fill="url(#paint88_linear)"/>
</g>
<path d="M225.103 71.5836H175.52V111.887H225.103V71.5836Z" fill="#F2F2F2"/>
<path d="M225.103 71.5836H175.52V80.5739H225.103V71.5836Z" fill="#6C63FF"/>
<path opacity="0.1" d="M225.103 71.5836H175.52V80.5739H225.103V71.5836Z" fill="black"/>
<path d="M221.155 83.835H179.474V89.0705H221.155V83.835Z" fill="#E0E0E0"/>
<path d="M209.893 93.0193H179.474V94.7996H209.893V93.0193Z" fill="#E0E0E0"/>
<path d="M199.225 96.0808H179.474V97.8611H199.225V96.0808Z" fill="#E0E0E0"/>
<path d="M205.546 99.1422H179.474V100.923H205.546V99.1422Z" fill="#E0E0E0"/>
<path d="M209.893 102.209H179.474V103.99H209.893V102.209Z" fill="#E0E0E0"/>
<path d="M189.649 105.271H179.474V107.051H189.649V105.271Z" fill="#E0E0E0"/>
<g opacity="0.5">
<path opacity="0.5" d="M312.752 102.17H249.706V153.966H312.752V102.17Z" fill="url(#paint89_linear)"/>
</g>
<path d="M311.898 103.147H250.444V153.106H311.898V103.147Z" fill="white"/>
<path d="M311.898 103.147H250.444V114.289H311.898V103.147Z" fill="#6C63FF"/>
<path d="M307.002 118.332H255.34V124.821H307.002V118.332Z" fill="#F5F5F5"/>
<path d="M293.046 129.718H255.34V131.92H293.046V129.718Z" fill="#E0E0E0"/>
<path d="M279.826 133.517H255.34V135.719H279.826V133.517Z" fill="#E0E0E0"/>
<path d="M287.656 137.311H255.34V139.512H287.656V137.311Z" fill="#E0E0E0"/>
<path d="M293.046 141.11H255.34V143.311H293.046V141.11Z" fill="#E0E0E0"/>
<path d="M267.949 144.903H255.34V147.105H267.949V144.903Z" fill="#E0E0E0"/>
<path d="M272.723 120.534H258.035V122.491H272.723V120.534Z" fill="#69F0AE"/>
<path opacity="0.1" d="M69.6946 297.371L144.263 316.189L204.199 267.395V237.423L71.0864 203.964L69.6946 297.371Z" fill="black"/>
<path opacity="0.1" d="M338.703 297.371L264.134 316.189L204.199 267.395V237.423L337.311 203.964L338.703 297.371Z" fill="black"/>
<path d="M71.4357 201.523L3.13843 257.983L136.245 291.442L204.542 237.074L71.4357 201.523Z" fill="#535461"/>
<path d="M337.655 201.523L406.651 257.983L274.237 291.442L204.542 237.074L337.655 201.523Z" fill="#535461"/>
<path opacity="0.07" d="M337.655 201.523L406.651 257.983L274.237 291.442L204.542 237.074L337.655 201.523Z" fill="black"/>
</g>
<defs>
<linearGradient id="paint0_linear" x1="203.151" y1="297.449" x2="337.411" y2="297.449" gradientUnits="userSpaceOnUse">
<stop stop-color="#808080" stop-opacity="0.25"/>
<stop offset="0.54" stop-color="#808080" stop-opacity="0.12"/>
<stop offset="1" stop-color="#808080" stop-opacity="0.1"/>
</linearGradient>
<linearGradient id="paint1_linear" x1="203.151" y1="297.449" x2="337.411" y2="297.449" gradientUnits="userSpaceOnUse">
<stop stop-color="#808080" stop-opacity="0.25"/>
<stop offset="0.54" stop-color="#808080" stop-opacity="0.12"/>
<stop offset="1" stop-color="#808080" stop-opacity="0.1"/>
</linearGradient>
<linearGradient id="paint2_linear" x1="16748.7" y1="135918" x2="49259.8" y2="135918" gradientUnits="userSpaceOnUse">
<stop stop-color="#808080" stop-opacity="0.25"/>
<stop offset="0.54" stop-color="#808080" stop-opacity="0.12"/>
<stop offset="1" stop-color="#808080" stop-opacity="0.1"/>
</linearGradient>
<linearGradient id="paint3_linear" x1="16748.7" y1="135918" x2="49259.8" y2="135918" gradientUnits="userSpaceOnUse">
<stop stop-color="#808080" stop-opacity="0.25"/>
<stop offset="0.54" stop-color="#808080" stop-opacity="0.12"/>
<stop offset="1" stop-color="#808080" stop-opacity="0.1"/>
</linearGradient>
<linearGradient id="paint4_linear" x1="74887.4" y1="25788.6" x2="149829" y2="25788.6" gradientUnits="userSpaceOnUse">
<stop stop-color="#808080" stop-opacity="0.25"/>
<stop offset="0.54" stop-color="#808080" stop-opacity="0.12"/>
<stop offset="1" stop-color="#808080" stop-opacity="0.1"/>
</linearGradient>
<linearGradient id="paint5_linear" x1="0" y1="25788.6" x2="74428.3" y2="25788.6" gradientUnits="userSpaceOnUse">
<stop stop-color="#808080" stop-opacity="0.25"/>
<stop offset="0.54" stop-color="#808080" stop-opacity="0.12"/>
<stop offset="1" stop-color="#808080" stop-opacity="0.1"/>
</linearGradient>
<linearGradient id="paint6_linear" x1="0" y1="25788.6" x2="74428.3" y2="25788.6" gradientUnits="userSpaceOnUse">
<stop stop-color="#808080" stop-opacity="0.25"/>
<stop offset="0.54" stop-color="#808080" stop-opacity="0.12"/>
<stop offset="1" stop-color="#808080" stop-opacity="0.1"/>
</linearGradient>
<linearGradient id="paint7_linear" x1="27671.9" y1="38876.6" x2="27671.9" y2="23627.8" gradientUnits="userSpaceOnUse">
<stop stop-color="#808080" stop-opacity="0.25"/>
<stop offset="0.54" stop-color="#808080" stop-opacity="0.12"/>
<stop offset="1" stop-color="#808080" stop-opacity="0.1"/>
</linearGradient>
<linearGradient id="paint8_linear" x1="18502.6" y1="30433.6" x2="35596.8" y2="30433.6" gradientUnits="userSpaceOnUse">
<stop stop-color="#808080" stop-opacity="0.25"/>
<stop offset="0.54" stop-color="#808080" stop-opacity="0.12"/>
<stop offset="1" stop-color="#808080" stop-opacity="0.1"/>
</linearGradient>
<linearGradient id="paint9_linear" x1="3437.06" y1="4541.43" x2="3923.21" y2="4541.43" gradientUnits="userSpaceOnUse">
<stop stop-color="#808080" stop-opacity="0.25"/>
<stop offset="0.54" stop-color="#808080" stop-opacity="0.12"/>
<stop offset="1" stop-color="#808080" stop-opacity="0.1"/>
</linearGradient>
<linearGradient id="paint10_linear" x1="15863" y1="624.652" x2="23545.9" y2="624.652" gradientUnits="userSpaceOnUse">
<stop stop-color="#808080" stop-opacity="0.25"/>
<stop offset="0.54" stop-color="#808080" stop-opacity="0.12"/>
<stop offset="1" stop-color="#808080" stop-opacity="0.1"/>
</linearGradient>
<linearGradient id="paint11_linear" x1="15863" y1="644.15" x2="23545.9" y2="644.15" gradientUnits="userSpaceOnUse">
<stop stop-color="#808080" stop-opacity="0.25"/>
<stop offset="0.54" stop-color="#808080" stop-opacity="0.12"/>
<stop offset="1" stop-color="#808080" stop-opacity="0.1"/>
</linearGradient>
<linearGradient id="paint12_linear" x1="17720.8" y1="714.984" x2="31767.2" y2="714.984" gradientUnits="userSpaceOnUse">
<stop stop-color="#808080" stop-opacity="0.25"/>
<stop offset="0.54" stop-color="#808080" stop-opacity="0.12"/>
<stop offset="1" stop-color="#808080" stop-opacity="0.1"/>
</linearGradient>
<linearGradient id="paint13_linear" x1="17720.8" y1="734.481" x2="31767.2" y2="734.481" gradientUnits="userSpaceOnUse">
<stop stop-color="#808080" stop-opacity="0.25"/>
<stop offset="0.54" stop-color="#808080" stop-opacity="0.12"/>
<stop offset="1" stop-color="#808080" stop-opacity="0.1"/>
</linearGradient>
<linearGradient id="paint14_linear" x1="17720.8" y1="760.495" x2="31767.2" y2="760.495" gradientUnits="userSpaceOnUse">
<stop stop-color="#808080" stop-opacity="0.25"/>
<stop offset="0.54" stop-color="#808080" stop-opacity="0.12"/>
<stop offset="1" stop-color="#808080" stop-opacity="0.1"/>
</linearGradient>
<linearGradient id="paint15_linear" x1="10266.7" y1="780.015" x2="14938.5" y2="780.015" gradientUnits="userSpaceOnUse">
<stop stop-color="#808080" stop-opacity="0.25"/>
<stop offset="0.54" stop-color="#808080" stop-opacity="0.12"/>
<stop offset="1" stop-color="#808080" stop-opacity="0.1"/>
</linearGradient>
<linearGradient id="paint16_linear" x1="17720.8" y1="805.953" x2="31767.2" y2="805.953" gradientUnits="userSpaceOnUse">
<stop stop-color="#808080" stop-opacity="0.25"/>
<stop offset="0.54" stop-color="#808080" stop-opacity="0.12"/>
<stop offset="1" stop-color="#808080" stop-opacity="0.1"/>
</linearGradient>
<linearGradient id="paint17_linear" x1="17720.8" y1="825.467" x2="31767.2" y2="825.467" gradientUnits="userSpaceOnUse">
<stop stop-color="#808080" stop-opacity="0.25"/>
<stop offset="0.54" stop-color="#808080" stop-opacity="0.12"/>
<stop offset="1" stop-color="#808080" stop-opacity="0.1"/>
</linearGradient>
<linearGradient id="paint18_linear" x1="17720.8" y1="851.481" x2="31767.2" y2="851.481" gradientUnits="userSpaceOnUse">
<stop stop-color="#808080" stop-opacity="0.25"/>
<stop offset="0.54" stop-color="#808080" stop-opacity="0.12"/>
<stop offset="1" stop-color="#808080" stop-opacity="0.1"/>
</linearGradient>
<linearGradient id="paint19_linear" x1="10266.7" y1="870.972" x2="14938.5" y2="870.972" gradientUnits="userSpaceOnUse">
<stop stop-color="#808080" stop-opacity="0.25"/>
<stop offset="0.54" stop-color="#808080" stop-opacity="0.12"/>
<stop offset="1" stop-color="#808080" stop-opacity="0.1"/>
</linearGradient>
<linearGradient id="paint20_linear" x1="30389.5" y1="42422" x2="30389.5" y2="27172.3" gradientUnits="userSpaceOnUse">
<stop stop-color="#808080" stop-opacity="0.25"/>
<stop offset="0.54" stop-color="#808080" stop-opacity="0.12"/>
<stop offset="1" stop-color="#808080" stop-opacity="0.1"/>
</linearGradient>
<linearGradient id="paint21_linear" x1="21158" y1="33893.6" x2="38252.2" y2="33893.6" gradientUnits="userSpaceOnUse">
<stop stop-color="#808080" stop-opacity="0.25"/>
<stop offset="0.54" stop-color="#808080" stop-opacity="0.12"/>
<stop offset="1" stop-color="#808080" stop-opacity="0.1"/>
</linearGradient>
<linearGradient id="paint22_linear" x1="3897.37" y1="5129.06" x2="4383.52" y2="5129.06" gradientUnits="userSpaceOnUse">
<stop stop-color="#808080" stop-opacity="0.25"/>
<stop offset="0.54" stop-color="#808080" stop-opacity="0.12"/>
<stop offset="1" stop-color="#808080" stop-opacity="0.1"/>
</linearGradient>
<linearGradient id="paint23_linear" x1="17648.8" y1="708.807" x2="25331.7" y2="708.807" gradientUnits="userSpaceOnUse">
<stop stop-color="#808080" stop-opacity="0.25"/>
<stop offset="0.54" stop-color="#808080" stop-opacity="0.12"/>
<stop offset="1" stop-color="#808080" stop-opacity="0.1"/>
</linearGradient>
<linearGradient id="paint24_linear" x1="17648.8" y1="728.31" x2="25331.7" y2="728.31" gradientUnits="userSpaceOnUse">
<stop stop-color="#808080" stop-opacity="0.25"/>
<stop offset="0.54" stop-color="#808080" stop-opacity="0.12"/>
<stop offset="1" stop-color="#808080" stop-opacity="0.1"/>
</linearGradient>
<linearGradient id="paint25_linear" x1="20129.2" y1="799.122" x2="34176.6" y2="799.122" gradientUnits="userSpaceOnUse">
<stop stop-color="#808080" stop-opacity="0.25"/>
<stop offset="0.54" stop-color="#808080" stop-opacity="0.12"/>
<stop offset="1" stop-color="#808080" stop-opacity="0.1"/>
</linearGradient>
<linearGradient id="paint26_linear" x1="20129.2" y1="818.641" x2="34176.6" y2="818.641" gradientUnits="userSpaceOnUse">
<stop stop-color="#808080" stop-opacity="0.25"/>
<stop offset="0.54" stop-color="#808080" stop-opacity="0.12"/>
<stop offset="1" stop-color="#808080" stop-opacity="0.1"/>
</linearGradient>
<linearGradient id="paint27_linear" x1="20129.2" y1="844.651" x2="34176.6" y2="844.651" gradientUnits="userSpaceOnUse">
<stop stop-color="#808080" stop-opacity="0.25"/>
<stop offset="0.54" stop-color="#808080" stop-opacity="0.12"/>
<stop offset="1" stop-color="#808080" stop-opacity="0.1"/>
</linearGradient>
<linearGradient id="paint28_linear" x1="11662" y1="864.166" x2="16333.9" y2="864.166" gradientUnits="userSpaceOnUse">
<stop stop-color="#808080" stop-opacity="0.25"/>
<stop offset="0.54" stop-color="#808080" stop-opacity="0.12"/>
<stop offset="1" stop-color="#808080" stop-opacity="0.1"/>
</linearGradient>
<linearGradient id="paint29_linear" x1="20129.2" y1="890.119" x2="34176.6" y2="890.119" gradientUnits="userSpaceOnUse">
<stop stop-color="#808080" stop-opacity="0.25"/>
<stop offset="0.54" stop-color="#808080" stop-opacity="0.12"/>
<stop offset="1" stop-color="#808080" stop-opacity="0.1"/>
</linearGradient>
<linearGradient id="paint30_linear" x1="20129.2" y1="909.616" x2="34176.6" y2="909.616" gradientUnits="userSpaceOnUse">
<stop stop-color="#808080" stop-opacity="0.25"/>
<stop offset="0.54" stop-color="#808080" stop-opacity="0.12"/>
<stop offset="1" stop-color="#808080" stop-opacity="0.1"/>
</linearGradient>
<linearGradient id="paint31_linear" x1="20129.2" y1="935.629" x2="34176.6" y2="935.629" gradientUnits="userSpaceOnUse">
<stop stop-color="#808080" stop-opacity="0.25"/>
<stop offset="0.54" stop-color="#808080" stop-opacity="0.12"/>
<stop offset="1" stop-color="#808080" stop-opacity="0.1"/>
</linearGradient>
<linearGradient id="paint32_linear" x1="11662" y1="955.144" x2="16333.9" y2="955.144" gradientUnits="userSpaceOnUse">
<stop stop-color="#808080" stop-opacity="0.25"/>
<stop offset="0.54" stop-color="#808080" stop-opacity="0.12"/>
<stop offset="1" stop-color="#808080" stop-opacity="0.1"/>
</linearGradient>
<linearGradient id="paint33_linear" x1="34392.9" y1="50718.8" x2="34392.9" y2="32153.6" gradientUnits="userSpaceOnUse">
<stop stop-color="#808080" stop-opacity="0.25"/>
<stop offset="0.54" stop-color="#808080" stop-opacity="0.12"/>
<stop offset="1" stop-color="#808080" stop-opacity="0.1"/>
</linearGradient>
<linearGradient id="paint34_linear" x1="26634.7" y1="39807.7" x2="38718" y2="39807.7" gradientUnits="userSpaceOnUse">
<stop stop-color="#808080" stop-opacity="0.25"/>
<stop offset="0.54" stop-color="#808080" stop-opacity="0.12"/>
<stop offset="1" stop-color="#808080" stop-opacity="0.1"/>
</linearGradient>
<linearGradient id="paint35_linear" x1="13693.9" y1="6501.33" x2="13693.9" y2="6122.65" gradientUnits="userSpaceOnUse">
<stop stop-color="#808080" stop-opacity="0.25"/>
<stop offset="0.54" stop-color="#808080" stop-opacity="0.12"/>
<stop offset="1" stop-color="#808080" stop-opacity="0.1"/>
</linearGradient>
<linearGradient id="paint36_linear" x1="7643.86" y1="4125.75" x2="8336.38" y2="4125.75" gradientUnits="userSpaceOnUse">
<stop stop-color="#808080" stop-opacity="0.25"/>
<stop offset="0.54" stop-color="#808080" stop-opacity="0.12"/>
<stop offset="1" stop-color="#808080" stop-opacity="0.1"/>
</linearGradient>
<linearGradient id="paint37_linear" x1="3396.46" y1="1178.39" x2="3516.6" y2="1178.39" gradientUnits="userSpaceOnUse">
<stop stop-color="#808080" stop-opacity="0.25"/>
<stop offset="0.54" stop-color="#808080" stop-opacity="0.12"/>
<stop offset="1" stop-color="#808080" stop-opacity="0.1"/>
</linearGradient>
<linearGradient id="paint38_linear" x1="20067.1" y1="1193.68" x2="26042.7" y2="1193.68" gradientUnits="userSpaceOnUse">
<stop stop-color="#808080" stop-opacity="0.25"/>
<stop offset="0.54" stop-color="#808080" stop-opacity="0.12"/>
<stop offset="1" stop-color="#808080" stop-opacity="0.1"/>
</linearGradient>
<linearGradient id="paint39_linear" x1="20067.1" y1="1281.08" x2="26042.7" y2="1281.08" gradientUnits="userSpaceOnUse">
<stop stop-color="#808080" stop-opacity="0.25"/>
<stop offset="0.54" stop-color="#808080" stop-opacity="0.12"/>
<stop offset="1" stop-color="#808080" stop-opacity="0.1"/>
</linearGradient>
<linearGradient id="paint40_linear" x1="20067.1" y1="1304.35" x2="26042.7" y2="1304.35" gradientUnits="userSpaceOnUse">
<stop stop-color="#808080" stop-opacity="0.25"/>
<stop offset="0.54" stop-color="#808080" stop-opacity="0.12"/>
<stop offset="1" stop-color="#808080" stop-opacity="0.1"/>
</linearGradient>
<linearGradient id="paint41_linear" x1="8579.41" y1="1257.87" x2="9643.66" y2="1257.87" gradientUnits="userSpaceOnUse">
<stop stop-color="#808080" stop-opacity="0.25"/>
<stop offset="0.54" stop-color="#808080" stop-opacity="0.12"/>
<stop offset="1" stop-color="#808080" stop-opacity="0.1"/>
</linearGradient>
<linearGradient id="paint42_linear" x1="7793.8" y1="1257.87" x2="8388.89" y2="1257.87" gradientUnits="userSpaceOnUse">
<stop stop-color="#808080" stop-opacity="0.25"/>
<stop offset="0.54" stop-color="#808080" stop-opacity="0.12"/>
<stop offset="1" stop-color="#808080" stop-opacity="0.1"/>
</linearGradient>
<linearGradient id="paint43_linear" x1="7145.88" y1="1358.57" x2="7741.16" y2="1358.57" gradientUnits="userSpaceOnUse">
<stop stop-color="#808080" stop-opacity="0.25"/>
<stop offset="0.54" stop-color="#808080" stop-opacity="0.12"/>
<stop offset="1" stop-color="#808080" stop-opacity="0.1"/>
</linearGradient>
<linearGradient id="paint44_linear" x1="16748.7" y1="125041" x2="49259.8" y2="125041" gradientUnits="userSpaceOnUse">
<stop stop-color="#808080" stop-opacity="0.25"/>
<stop offset="0.54" stop-color="#808080" stop-opacity="0.12"/>
<stop offset="1" stop-color="#808080" stop-opacity="0.1"/>
</linearGradient>
<linearGradient id="paint45_linear" x1="49392" y1="125041" x2="81900.4" y2="125041" gradientUnits="userSpaceOnUse">
<stop stop-color="#808080" stop-opacity="0.25"/>
<stop offset="0.54" stop-color="#808080" stop-opacity="0.12"/>
<stop offset="1" stop-color="#808080" stop-opacity="0.1"/>
</linearGradient>
<linearGradient id="paint46_linear" x1="49392" y1="125041" x2="81900.4" y2="125041" gradientUnits="userSpaceOnUse">
<stop stop-color="#808080" stop-opacity="0.25"/>
<stop offset="0.54" stop-color="#808080" stop-opacity="0.12"/>
<stop offset="1" stop-color="#808080" stop-opacity="0.1"/>
</linearGradient>
<linearGradient id="paint47_linear" x1="27646" y1="48254.8" x2="32793.5" y2="48254.8" gradientUnits="userSpaceOnUse">
<stop stop-color="#808080" stop-opacity="0.25"/>
<stop offset="0.54" stop-color="#808080" stop-opacity="0.12"/>
<stop offset="1" stop-color="#808080" stop-opacity="0.1"/>
</linearGradient>
<linearGradient id="paint48_linear" x1="20758" y1="15675.9" x2="20758" y2="13065.2" gradientUnits="userSpaceOnUse">
<stop stop-color="#808080" stop-opacity="0.25"/>
<stop offset="0.54" stop-color="#808080" stop-opacity="0.12"/>
<stop offset="1" stop-color="#808080" stop-opacity="0.1"/>
</linearGradient>
<linearGradient id="paint49_linear" x1="18789.1" y1="13740.1" x2="21442.1" y2="13740.1" gradientUnits="userSpaceOnUse">
<stop stop-color="#808080" stop-opacity="0.25"/>
<stop offset="0.54" stop-color="#808080" stop-opacity="0.12"/>
<stop offset="1" stop-color="#808080" stop-opacity="0.1"/>
</linearGradient>
<linearGradient id="paint50_linear" x1="12500.9" y1="4998.79" x2="12500.9" y2="4779.49" gradientUnits="userSpaceOnUse">
<stop stop-color="#808080" stop-opacity="0.25"/>
<stop offset="0.54" stop-color="#808080" stop-opacity="0.12"/>
<stop offset="1" stop-color="#808080" stop-opacity="0.1"/>
</linearGradient>
<linearGradient id="paint51_linear" x1="7792.13" y1="3211.73" x2="8192.92" y2="3211.73" gradientUnits="userSpaceOnUse">
<stop stop-color="#808080" stop-opacity="0.25"/>
<stop offset="0.54" stop-color="#808080" stop-opacity="0.12"/>
<stop offset="1" stop-color="#808080" stop-opacity="0.1"/>
</linearGradient>
<linearGradient id="paint52_linear" x1="3465.7" y1="958.701" x2="3535.32" y2="958.701" gradientUnits="userSpaceOnUse">
<stop stop-color="#808080" stop-opacity="0.25"/>
<stop offset="0.54" stop-color="#808080" stop-opacity="0.12"/>
<stop offset="1" stop-color="#808080" stop-opacity="0.1"/>
</linearGradient>
<linearGradient id="paint53_linear" x1="7266.47" y1="919.671" x2="7610.96" y2="919.671" gradientUnits="userSpaceOnUse">
<stop stop-color="#808080" stop-opacity="0.25"/>
<stop offset="0.54" stop-color="#808080" stop-opacity="0.12"/>
<stop offset="1" stop-color="#808080" stop-opacity="0.1"/>
</linearGradient>
<linearGradient id="paint54_linear" x1="11987.9" y1="934.555" x2="12992.8" y2="934.555" gradientUnits="userSpaceOnUse">
<stop stop-color="#808080" stop-opacity="0.25"/>
<stop offset="0.54" stop-color="#808080" stop-opacity="0.12"/>
<stop offset="1" stop-color="#808080" stop-opacity="0.1"/>
</linearGradient>
<linearGradient id="paint55_linear" x1="18578.4" y1="8699.14" x2="18578.4" y2="5495.71" gradientUnits="userSpaceOnUse">
<stop stop-color="#808080" stop-opacity="0.25"/>
<stop offset="0.54" stop-color="#808080" stop-opacity="0.12"/>
<stop offset="1" stop-color="#808080" stop-opacity="0.1"/>
</linearGradient>
<linearGradient id="paint56_linear" x1="15855.5" y1="6852.27" x2="20365.9" y2="6852.27" gradientUnits="userSpaceOnUse">
<stop stop-color="#808080" stop-opacity="0.25"/>
<stop offset="0.54" stop-color="#808080" stop-opacity="0.12"/>
<stop offset="1" stop-color="#808080" stop-opacity="0.1"/>
</linearGradient>
<linearGradient id="paint57_linear" x1="15855.5" y1="1326.26" x2="20365.9" y2="1326.26" gradientUnits="userSpaceOnUse">
<stop stop-color="#808080" stop-opacity="0.25"/>
<stop offset="0.54" stop-color="#808080" stop-opacity="0.12"/>
<stop offset="1" stop-color="#808080" stop-opacity="0.1"/>
</linearGradient>
<linearGradient id="paint58_linear" x1="15855.5" y1="1326.26" x2="20365.9" y2="1326.26" gradientUnits="userSpaceOnUse">
<stop stop-color="#808080" stop-opacity="0.25"/>
<stop offset="0.54" stop-color="#808080" stop-opacity="0.12"/>
<stop offset="1" stop-color="#808080" stop-opacity="0.1"/>
</linearGradient>
<linearGradient id="paint59_linear" x1="13663.2" y1="914.368" x2="16850.4" y2="914.368" gradientUnits="userSpaceOnUse">
<stop stop-color="#808080" stop-opacity="0.25"/>
<stop offset="0.54" stop-color="#808080" stop-opacity="0.12"/>
<stop offset="1" stop-color="#808080" stop-opacity="0.1"/>
</linearGradient>
<linearGradient id="paint60_linear" x1="10020.6" y1="399.641" x2="11718.5" y2="399.641" gradientUnits="userSpaceOnUse">
<stop stop-color="#808080" stop-opacity="0.25"/>
<stop offset="0.54" stop-color="#808080" stop-opacity="0.12"/>
<stop offset="1" stop-color="#808080" stop-opacity="0.1"/>
</linearGradient>
<linearGradient id="paint61_linear" x1="6568.37" y1="412.707" x2="7284.21" y2="412.707" gradientUnits="userSpaceOnUse">
<stop stop-color="#808080" stop-opacity="0.25"/>
<stop offset="0.54" stop-color="#808080" stop-opacity="0.12"/>
<stop offset="1" stop-color="#808080" stop-opacity="0.1"/>
</linearGradient>
<linearGradient id="paint62_linear" x1="8613.76" y1="425.776" x2="9861.16" y2="425.776" gradientUnits="userSpaceOnUse">
<stop stop-color="#808080" stop-opacity="0.25"/>
<stop offset="0.54" stop-color="#808080" stop-opacity="0.12"/>
<stop offset="1" stop-color="#808080" stop-opacity="0.1"/>
</linearGradient>
<linearGradient id="paint63_linear" x1="10020.6" y1="438.836" x2="11718.5" y2="438.836" gradientUnits="userSpaceOnUse">
<stop stop-color="#808080" stop-opacity="0.25"/>
<stop offset="0.54" stop-color="#808080" stop-opacity="0.12"/>
<stop offset="1" stop-color="#808080" stop-opacity="0.1"/>
</linearGradient>
<linearGradient id="paint64_linear" x1="3468.27" y1="451.903" x2="3658.04" y2="451.903" gradientUnits="userSpaceOnUse">
<stop stop-color="#808080" stop-opacity="0.25"/>
<stop offset="0.54" stop-color="#808080" stop-opacity="0.12"/>
<stop offset="1" stop-color="#808080" stop-opacity="0.1"/>
</linearGradient>
<linearGradient id="paint65_linear" x1="32416.1" y1="14727.3" x2="32416.1" y2="9806.91" gradientUnits="userSpaceOnUse">
<stop stop-color="#808080" stop-opacity="0.25"/>
<stop offset="0.54" stop-color="#808080" stop-opacity="0.12"/>
<stop offset="1" stop-color="#808080" stop-opacity="0.1"/>
</linearGradient>
<linearGradient id="paint66_linear" x1="28135" y1="11842" x2="35063.9" y2="11842" gradientUnits="userSpaceOnUse">
<stop stop-color="#808080" stop-opacity="0.25"/>
<stop offset="0.54" stop-color="#808080" stop-opacity="0.12"/>
<stop offset="1" stop-color="#808080" stop-opacity="0.1"/>
</linearGradient>
<linearGradient id="paint67_linear" x1="28135" y1="2325.12" x2="35063.9" y2="2325.12" gradientUnits="userSpaceOnUse">
<stop stop-color="#808080" stop-opacity="0.25"/>
<stop offset="0.54" stop-color="#808080" stop-opacity="0.12"/>
<stop offset="1" stop-color="#808080" stop-opacity="0.1"/>
</linearGradient>
<linearGradient id="paint68_linear" x1="24158.5" y1="1565.97" x2="29054.9" y2="1565.97" gradientUnits="userSpaceOnUse">
<stop stop-color="#808080" stop-opacity="0.25"/>
<stop offset="0.54" stop-color="#808080" stop-opacity="0.12"/>
<stop offset="1" stop-color="#808080" stop-opacity="0.1"/>
</linearGradient>
<linearGradient id="paint69_linear" x1="17702.3" y1="659.811" x2="20311" y2="659.811" gradientUnits="userSpaceOnUse">
<stop stop-color="#808080" stop-opacity="0.25"/>
<stop offset="0.54" stop-color="#808080" stop-opacity="0.12"/>
<stop offset="1" stop-color="#808080" stop-opacity="0.1"/>
</linearGradient>
<linearGradient id="paint70_linear" x1="11584.5" y1="679.006" x2="12684.5" y2="679.006" gradientUnits="userSpaceOnUse">
<stop stop-color="#808080" stop-opacity="0.25"/>
<stop offset="0.54" stop-color="#808080" stop-opacity="0.12"/>
<stop offset="1" stop-color="#808080" stop-opacity="0.1"/>
</linearGradient>
<linearGradient id="paint71_linear" x1="15209.4" y1="698.184" x2="17125.9" y2="698.184" gradientUnits="userSpaceOnUse">
<stop stop-color="#808080" stop-opacity="0.25"/>
<stop offset="0.54" stop-color="#808080" stop-opacity="0.12"/>
<stop offset="1" stop-color="#808080" stop-opacity="0.1"/>
</linearGradient>
<linearGradient id="paint72_linear" x1="17702.3" y1="717.352" x2="20311" y2="717.352" gradientUnits="userSpaceOnUse">
<stop stop-color="#808080" stop-opacity="0.25"/>
<stop offset="0.54" stop-color="#808080" stop-opacity="0.12"/>
<stop offset="1" stop-color="#808080" stop-opacity="0.1"/>
</linearGradient>
<linearGradient id="paint73_linear" x1="6089.86" y1="736.551" x2="6381.66" y2="736.551" gradientUnits="userSpaceOnUse">
<stop stop-color="#808080" stop-opacity="0.25"/>
<stop offset="0.54" stop-color="#808080" stop-opacity="0.12"/>
<stop offset="1" stop-color="#808080" stop-opacity="0.1"/>
</linearGradient>
<linearGradient id="paint74_linear" x1="7126.76" y1="557.78" x2="7522.65" y2="557.78" gradientUnits="userSpaceOnUse">
<stop stop-color="#808080" stop-opacity="0.25"/>
<stop offset="0.54" stop-color="#808080" stop-opacity="0.12"/>
<stop offset="1" stop-color="#808080" stop-opacity="0.1"/>
</linearGradient>
<linearGradient id="paint75_linear" x1="16491.8" y1="53739.5" x2="49683.2" y2="53739.5" gradientUnits="userSpaceOnUse">
<stop stop-color="#808080" stop-opacity="0.25"/>
<stop offset="0.54" stop-color="#808080" stop-opacity="0.12"/>
<stop offset="1" stop-color="#808080" stop-opacity="0.1"/>
</linearGradient>
<linearGradient id="paint76_linear" x1="49820.8" y1="53739.5" x2="83014.8" y2="53739.5" gradientUnits="userSpaceOnUse">
<stop stop-color="#808080" stop-opacity="0.25"/>
<stop offset="0.54" stop-color="#808080" stop-opacity="0.12"/>
<stop offset="1" stop-color="#808080" stop-opacity="0.1"/>
</linearGradient>
<linearGradient id="paint77_linear" x1="0" y1="40856.4" x2="74428.3" y2="40856.4" gradientUnits="userSpaceOnUse">
<stop stop-color="#808080" stop-opacity="0.25"/>
<stop offset="0.54" stop-color="#808080" stop-opacity="0.12"/>
<stop offset="1" stop-color="#808080" stop-opacity="0.1"/>
</linearGradient>
<linearGradient id="paint78_linear" x1="74887.4" y1="40856.4" x2="149829" y2="40856.4" gradientUnits="userSpaceOnUse">
<stop stop-color="#808080" stop-opacity="0.25"/>
<stop offset="0.54" stop-color="#808080" stop-opacity="0.12"/>
<stop offset="1" stop-color="#808080" stop-opacity="0.1"/>
</linearGradient>
<linearGradient id="paint79_linear" x1="74887.4" y1="40856.4" x2="149829" y2="40856.4" gradientUnits="userSpaceOnUse">
<stop stop-color="#808080" stop-opacity="0.25"/>
<stop offset="0.54" stop-color="#808080" stop-opacity="0.12"/>
<stop offset="1" stop-color="#808080" stop-opacity="0.1"/>
</linearGradient>
<linearGradient id="paint80_linear" x1="27761.9" y1="38220" x2="27761.9" y2="23230.4" gradientUnits="userSpaceOnUse">
<stop stop-color="#808080" stop-opacity="0.25"/>
<stop offset="0.54" stop-color="#808080" stop-opacity="0.12"/>
<stop offset="1" stop-color="#808080" stop-opacity="0.1"/>
</linearGradient>
<linearGradient id="paint81_linear" x1="30434.6" y1="41705" x2="30434.6" y2="26715.3" gradientUnits="userSpaceOnUse">
<stop stop-color="#808080" stop-opacity="0.25"/>
<stop offset="0.54" stop-color="#808080" stop-opacity="0.12"/>
<stop offset="1" stop-color="#808080" stop-opacity="0.1"/>
</linearGradient>
<linearGradient id="paint82_linear" x1="34296.6" y1="49860.1" x2="34296.6" y2="31612.1" gradientUnits="userSpaceOnUse">
<stop stop-color="#808080" stop-opacity="0.25"/>
<stop offset="0.54" stop-color="#808080" stop-opacity="0.12"/>
<stop offset="1" stop-color="#808080" stop-opacity="0.1"/>
</linearGradient>
<linearGradient id="paint83_linear" x1="13627.9" y1="6404.58" x2="13627.9" y2="6031.97" gradientUnits="userSpaceOnUse">
<stop stop-color="#808080" stop-opacity="0.25"/>
<stop offset="0.54" stop-color="#808080" stop-opacity="0.12"/>
<stop offset="1" stop-color="#808080" stop-opacity="0.1"/>
</linearGradient>
<linearGradient id="paint84_linear" x1="20631.7" y1="15411.8" x2="20631.7" y2="12845.8" gradientUnits="userSpaceOnUse">
<stop stop-color="#808080" stop-opacity="0.25"/>
<stop offset="0.54" stop-color="#808080" stop-opacity="0.12"/>
<stop offset="1" stop-color="#808080" stop-opacity="0.1"/>
</linearGradient>
<linearGradient id="paint85_linear" x1="12413.2" y1="4924.55" x2="12413.2" y2="4708.98" gradientUnits="userSpaceOnUse">
<stop stop-color="#808080" stop-opacity="0.25"/>
<stop offset="0.54" stop-color="#808080" stop-opacity="0.12"/>
<stop offset="1" stop-color="#808080" stop-opacity="0.1"/>
</linearGradient>
<linearGradient id="paint86_linear" x1="17929.6" y1="2566.03" x2="17929.6" y2="0" gradientUnits="userSpaceOnUse">
<stop stop-color="#808080" stop-opacity="0.25"/>
<stop offset="0.54" stop-color="#808080" stop-opacity="0.12"/>
<stop offset="1" stop-color="#808080" stop-opacity="0.1"/>
</linearGradient>
<linearGradient id="paint87_linear" x1="11280" y1="1067.7" x2="11280" y2="852.245" gradientUnits="userSpaceOnUse">
<stop stop-color="#808080" stop-opacity="0.25"/>
<stop offset="0.54" stop-color="#808080" stop-opacity="0.12"/>
<stop offset="1" stop-color="#808080" stop-opacity="0.1"/>
</linearGradient>
<linearGradient id="paint88_linear" x1="18554.1" y1="8553.73" x2="18554.1" y2="5404.86" gradientUnits="userSpaceOnUse">
<stop stop-color="#808080" stop-opacity="0.25"/>
<stop offset="0.54" stop-color="#808080" stop-opacity="0.12"/>
<stop offset="1" stop-color="#808080" stop-opacity="0.1"/>
</linearGradient>
<linearGradient id="paint89_linear" x1="32225.5" y1="14481" x2="32225.5" y2="9643.86" gradientUnits="userSpaceOnUse">
<stop stop-color="#808080" stop-opacity="0.25"/>
<stop offset="0.54" stop-color="#808080" stop-opacity="0.12"/>
<stop offset="1" stop-color="#808080" stop-opacity="0.1"/>
</linearGradient>
<clipPath id="clip0">
<rect width="407" height="424" fill="white"/>
</clipPath>
</defs>
</svg>
